<svg version="1.1" xmlns="http://www.w3.org/2000/svg" viewBox="0 0 1123.8333333333333 471.5" width="1123.8333333333333" height="471.5">
  <!-- svg-source:excalidraw -->
  
  <defs>
    <style>
      @font-face {
        font-family: "Virgil";
        src: url("https://excalidraw.com/Virgil.woff2");
      }
      @font-face {
        font-family: "Cascadia";
        src: url("https://excalidraw.com/Cascadia.woff2");
      }
    </style>
  </defs>
  <rect x="0" y="0" width="1123.8333333333333" height="471.5" fill="#ffffff"></rect><g transform="translate(309.3333333333333 256.5) rotate(0 2.5833333333333144 2.416666666666657)"><path d="M2.3667354852387215 1.027618904705442 C2.6676429838087166 0.646506296832071, 2.4587073687726897 -0.22544992694497762, 2.967826870999246 -0.10330073327563083 C3.4769463732258026 0.018848460393715946, 5.06344812209106 1.2107739237757293, 5.421452498598061 1.7605140667215227 C5.779456875105062 2.310254209667316, 5.4084649132140346 2.6928358236858507, 5.115853130041251 3.195140124399129 C4.823241346868468 3.6974444251124075, 3.9839281831231914 4.522572846325319, 3.6657817995613593 4.7743398710011915 C3.347635415999527 5.026106895677064, 3.57976710566791 4.929879241328424, 3.2069748286702584 4.705742272454364 C2.834182551672607 4.481605303580304, 2.057915406086487 3.7086380264219616, 1.42902813757545 3.429518057756832 C0.8001408690644132 3.1503980890917025, -0.42600723653410033 3.368287911879815, -0.5663487823959632 3.031022460463586 C-0.7066903282578261 2.6937570090473573, 0.004274406619939719 2.0574702985451947, 0.5869788624042727 1.4059253492594608 C1.1696833181886057 0.7543803999737267, 2.7730862886415264 -0.6135009618887723, 2.9298779523100342 -0.8782472352508184 C3.086669615978542 -1.1429935086128644, 1.5106834344732332 -0.27070588077067953, 1.5277288444153188 -0.18255229091281588 M2.049930653956978 0.42661573263948727 C2.5018153248361004 0.2212082736040315, 2.780016615679704 -1.072682702680932, 3.090035149521261 -0.8764141202690867 C3.400053683362818 -0.6801455378572413, 3.6035194951210667 0.67443758151216, 3.91004185700632 1.6042272271105595 C4.216564218891573 2.534016872708959, 5.160906189782548 4.155467431756488, 4.92916932083278 4.70232375332131 C4.697432451883012 5.249180074886132, 3.1163401437416085 4.84627611066963, 2.5196206433077144 4.8853651564994935 C1.9229011428738203 4.924454202329357, 1.602605800693254 5.083101449721412, 1.3488523182294148 4.93685802830049 C1.0950988357655755 4.790614606879568, 1.389813809365604 4.675132173976237, 0.9970997485246791 4.00790462797396 C0.6043856876837541 3.340677081971683, -1.0821189790180226 1.298304441917509, -1.007432046816135 0.9334927522868307 C-0.9327451146142475 0.5686810626561525, 0.8749875281003586 2.139584157012441, 1.4452213417360047 1.819034490189891 C2.015455155371651 1.498484823367341, 2.2562952793169355 -0.5276464033456836, 2.4139708349977416 -0.989805248648469 C2.5716463906785476 -1.4519640939512544, 2.3237363356735665 -1.098957743375621, 2.3912746758208416 -0.9539185816268212" stroke="#000000" stroke-width="1" fill="none"></path></g><g><g transform="translate(152.83333333333331 166.50000000000006) rotate(0 17.78628152422607 19.98673685379326)"><path d="M-0.9841686207801104 1.1965063232928512 C5.134202472493052 7.820883045469722, 30.401308802887797 33.243890863532826, 36.55673166923225 39.19440550990403 M0.7000041239708663 0.7790681976824998 C6.722498752400279 7.150610447203119, 30.158377055451272 31.55551035510997, 35.900970331951974 37.698893653824925" stroke="#000000" stroke-width="1" fill="none"></path></g><g transform="translate(152.83333333333331 166.50000000000006) rotate(0 17.78628152422607 19.98673685379326)"><path d="M14.471340815850404 26.950938100637913 C21.141667176715842 29.482511741145444, 24.044504125416275 31.441470736528323, 34.8122653119266 36.81887200906873 M12.62793441706976 25.880662560174287 C20.880269989777958 29.977791019041817, 28.025692032246564 32.83802123194385, 36.14051549192518 36.78331072036177" stroke="#000000" stroke-width="1" fill="none"></path></g><g transform="translate(152.83333333333331 166.50000000000006) rotate(0 17.78628152422607 19.98673685379326)"><path d="M27.45655691889457 14.626033407933697 C30.340735824903618 20.590930613140287, 29.514104969577833 26.08971019174443, 34.8122653119266 36.81887200906873 M25.613150520113926 13.55575786747007 C29.766294595662565 21.61242564025356, 32.70763217942099 28.462958352744707, 36.14051549192518 36.78331072036177" stroke="#000000" stroke-width="1" fill="none"></path></g></g><g><g transform="translate(507.8333333333333 212.5) rotate(0 -16.56736853532493 15.327393431570385)"><path d="M1.0597742099314928 0.3608876030892134 C-4.512929425761103 5.483689085766673, -28.44488160423934 24.620081762596964, -34.19451128058135 29.745975057408213 M0.1570169408060611 -0.4952503506280481 C-5.001877392437309 4.8963896586559725, -26.344563315417613 26.17420147618279, -32.10967516651377 31.15003721376881" stroke="#000000" stroke-width="1" fill="none"></path></g><g transform="translate(507.8333333333333 212.5) rotate(0 -16.56736853532493 15.327393431570385)"><path d="M-21.44652066644546 9.25911741770426 C-25.01838610384419 15.321341661619353, -25.117296270603525 20.725353603188772, -31.209141384195533 32.81624349726364 M-22.2128697688159 10.821596894148684 C-25.79921078900885 17.867857831318602, -29.209233516849995 26.92851127001024, -31.33564031714573 30.58625105822459" stroke="#000000" stroke-width="1" fill="none"></path></g><g transform="translate(507.8333333333333 212.5) rotate(0 -16.56736853532493 15.327393431570385)"><path d="M-11.008988557125743 20.382368956040345 C-16.96071362265496 23.9026833391549, -19.531327534378715 26.67260685871721, -31.209141384195533 32.81624349726364 M-11.775337659496184 21.94484843248477 C-19.22954091083141 24.954231420825323, -26.524157672362676 29.87508283462326, -31.33564031714573 30.58625105822459" stroke="#000000" stroke-width="1" fill="none"></path></g></g><g><g transform="translate(201.83333333333331 394.5) rotate(0 11.862972779944528 -8.987223986908816)"><path d="M0.5465799015015365 0.7584253806620835 C4.6082863371819265 -2.4102178912609817, 20.530928937718272 -15.729247401282192, 24.3515499394387 -18.732873354479672 M-0.6256043795496227 0.11099476017057897 C3.3104766460508106 -2.941818481311202, 19.746047761067747 -14.358525498732925, 23.588068194016813 -17.580206614360215" stroke="#000000" stroke-width="1" fill="none"></path></g><g transform="translate(201.83333333333331 394.5) rotate(0 11.862972779944528 -8.987223986908816)"><path d="M16.376493605008662 -4.554235720242101 C16.918282143947184 -9.449314300095992, 21.1903851227075 -13.81701813718715, 22.2294271232374 -17.543334207404406 M15.44581764416428 -5.713541639436695 C18.650885622863697 -8.78720128205413, 21.053956955873897 -13.271377833464513, 23.939970279140397 -16.914655613852666" stroke="#000000" stroke-width="1" fill="none"></path></g><g transform="translate(201.83333333333331 394.5) rotate(0 11.862972779944528 -8.987223986908816)"><path d="M10.195011081020912 -12.743819006471867 C12.600657245444314 -15.222932589491226, 18.71757800509211 -17.146515812172062, 22.2294271232374 -17.543334207404406 M9.26433512017653 -13.90312492566646 C14.633048379301279 -13.987714656177559, 19.248248193393543 -15.54113626888832, 23.939970279140397 -16.914655613852666" stroke="#000000" stroke-width="1" fill="none"></path></g></g><g><g transform="translate(503.8333333333333 398.5) rotate(0 -11.182121024951357 -13.35914216659964)"><path d="M0.027769223973155066 -1.1517895918339491 C-3.459726559991638 -5.294110689684748, -17.887006393944223 -21.852308748289943, -21.635387416556476 -25.985984597727658 M-1.416790662780404 0.8579169271141289 C-4.968243022138874 -3.502254998907447, -18.71630361971756 -22.808694052919748, -22.392011273875834 -27.576201260313393" stroke="#000000" stroke-width="1" fill="none"></path></g><g transform="translate(503.8333333333333 398.5) rotate(0 -11.182121024951357 -13.35914216659964)"><path d="M-9.55067698876388 -17.42267820709361 C-9.811586666163539 -20.937174754274686, -13.259608180006966 -21.766456564646617, -20.846683955973372 -28.011911859734127 M-8.514524430953163 -18.008106673040924 C-12.6932952546401 -21.43435023405124, -17.64431395578323 -24.64442651902486, -21.74086916318936 -26.958923755490353" stroke="#000000" stroke-width="1" fill="none"></path></g><g transform="translate(503.8333333333333 398.5) rotate(0 -11.182121024951357 -13.35914216659964)"><path d="M-19.13247221384746 -10.34572649658255 C-17.019333086352784 -15.566562843498335, -18.160068460924176 -18.099967128457727, -20.846683955973372 -28.011911859734127 M-18.09631965603674 -10.931154962529865 C-19.172673687804487 -16.64648149843762, -20.95579210127193 -22.196315295751457, -21.74086916318936 -26.958923755490353" stroke="#000000" stroke-width="1" fill="none"></path></g></g><g><g transform="translate(133.83333333333331 186.5) rotate(0 0.2558505290382982 122.39221760995689)"><path d="M1.1103678267449142 -0.6346351962536573 C1.0144826333969832 39.957863372440144, -0.7073011118918656 203.20136120108268, -0.8755583602935075 243.9223902720958 M0.23417220644652836 1.6465773803740742 C0.5399259977787731 42.40450544583301, 1.5177469354122877 204.8856526198735, 1.3767280369251966 245.4190704161674" stroke="#000000" stroke-width="1" fill="none"></path></g></g><g><g transform="translate(64.83333333333331 215.5) rotate(0 272.9576954052597 -2.6803232233971386)"><path d="M0.5110147397965192 -0.007495282217860222 C91.59535682611167 -0.7639800967027744, 455.64037872962655 -4.4450088641295835, 546.5952320616692 -5.353151164576412 M-0.6798412511497736 -1.0570342507213355 C90.2907591416687 -1.568805844609936, 454.9129586937279 -3.4475617295751966, 545.9596834304184 -4.001130274757743" stroke="#000000" stroke-width="1" fill="none"></path></g></g><g transform="translate(611.8333333333333 178.5) rotate(0 49.5 12.5)"><text x="0" y="18" font-family="Virgil, Segoe UI Emoji" font-size="20px" fill="#000000" text-anchor="start" style="white-space: pre;" direction="ltr">counter_x</text></g><g transform="translate(10 402.66666666666674) rotate(0 48.5 12.5)"><text x="0" y="18" font-family="Virgil, Segoe UI Emoji" font-size="20px" fill="#000000" text-anchor="start" style="white-space: pre;" direction="ltr">counter_y</text></g><g transform="translate(225.83333333333331 170.5) rotate(0 7.5 12.5)"><text x="0" y="18" font-family="Virgil, Segoe UI Emoji" font-size="20px" fill="#000000" text-anchor="start" style="white-space: pre;" direction="ltr">0</text></g><g transform="translate(304.8333333333333 166.5) rotate(0 2 12.5)"><text x="0" y="18" font-family="Virgil, Segoe UI Emoji" font-size="20px" fill="#000000" text-anchor="start" style="white-space: pre;" direction="ltr">1</text></g><g transform="translate(384.8333333333333 171.5) rotate(0 7.5 12.5)"><text x="0" y="18" font-family="Virgil, Segoe UI Emoji" font-size="20px" fill="#000000" text-anchor="start" style="white-space: pre;" direction="ltr">2</text></g><g transform="translate(458.8333333333333 173.5) rotate(0 7 12.5)"><text x="0" y="18" font-family="Virgil, Segoe UI Emoji" font-size="20px" fill="#000000" text-anchor="start" style="white-space: pre;" direction="ltr">3</text></g><g transform="translate(90.83333333333331 250.5) rotate(0 7.5 12.5)"><text x="0" y="18" font-family="Virgil, Segoe UI Emoji" font-size="20px" fill="#000000" text-anchor="start" style="white-space: pre;" direction="ltr">0</text></g><g transform="translate(99.83333333333331 302.5) rotate(0 2 12.5)"><text x="0" y="18" font-family="Virgil, Segoe UI Emoji" font-size="20px" fill="#000000" text-anchor="start" style="white-space: pre;" direction="ltr">1</text></g><g transform="translate(99.83333333333331 351.5) rotate(0 7.5 12.5)"><text x="0" y="18" font-family="Virgil, Segoe UI Emoji" font-size="20px" fill="#000000" text-anchor="start" style="white-space: pre;" direction="ltr">2</text></g><g><g transform="translate(201.83333333333331 279.5) rotate(0 36.19042200855915 0.03359276689589308)"><path d="M-0.2527299720793963 -0.3284822445362806 C11.960754112526775 -0.438234220072627, 60.471185104176406 0.17616369910538196, 72.63357398919761 0.05003255791962147 M1.8154480632394554 -1.5465393682569266 C13.982990003451704 -1.5095433827489615, 60.264938414916394 1.412226429358125, 72.01815486989915 1.6137249020487072" stroke="#000000" stroke-width="1" fill="none"></path></g></g><g><g transform="translate(438.8333333333333 274.5) rotate(0 40.80956065915524 2.837260183170443)"><path d="M-0.48753101415932176 0.7904155153781176 C12.883018271252512 1.5416382967183988, 66.43913140706718 3.3454838731636602, 79.9473428171128 3.9851248521357774 M1.4573764740675688 0.15977971561253068 C15.211942845508457 1.159762205357353, 69.08855652682483 5.105439694797, 82.10665233246982 5.514740650728346" stroke="#000000" stroke-width="1" fill="none"></path></g></g><g><g transform="translate(204.83333333333331 372.5) rotate(0 26.444178301617512 -0.0714192550629491)"><path d="M0.7258736651390791 1.0476899284869432 C9.475261807565888 0.7627130129685005, 44.56122698398928 -1.0122558535387118, 53.240537993237375 -1.1905284386128188 M-0.3521813900023698 0.5521231956034898 C8.195114238386353 0.4094011476387579, 43.70475228163103 0.6473866115758817, 52.418774976059794 0.24686938233673583" stroke="#000000" stroke-width="1" fill="none"></path></g></g><g><g transform="translate(440.8333333333333 372.5) rotate(0 34.861092238211995 -0.3114168088976328)"><path d="M0.07788207717239848 1.045747188851237 C11.993509791170556 1.0777962606400249, 59.388475388164316 0.528795413300395, 71.06255303807556 0.297700945660472 M-1.3403685616515577 0.5491605176590384 C10.460442413383475 0.19240310033783325, 57.831306097997974 -1.7100102064944804, 70.14734791943803 -1.6685808066464962" stroke="#000000" stroke-width="1" fill="none"></path></g></g><g><g transform="translate(247.83333333333331 235.5) rotate(0 -11.475923685953035 19.167965947315096)"><path d="M1.1818518798798323 1.1720936793833971 C-2.624790378287435 7.310316353912155, -19.246057995036246 31.567854938780272, -23.466002484038473 37.594092978909615 M0.3431853874772788 0.741838915720582 C-3.5199653450399637 6.459496242577831, -19.913857311382888 29.437055569862324, -24.133699251785874 35.78341704405844" stroke="#000000" stroke-width="1" fill="none"></path></g></g><g transform="translate(690.8333333333333 231.5) rotate(0 211.5 12.5)"><text x="0" y="18" font-family="Virgil, Segoe UI Emoji" font-size="20px" fill="#000000" text-anchor="start" style="white-space: pre;" direction="ltr">counter_x == 0 &amp;&amp; counter_y == 0 -&gt; '/'</text></g><g transform="translate(698.8333333333333 10) rotate(0 42 12.5)"><text x="0" y="18" font-family="Virgil, Segoe UI Emoji" font-size="20px" fill="#000000" text-anchor="start" style="white-space: pre;" direction="ltr">a[0][0]</text></g><g transform="translate(690.6666666666667 265.00000000000006) rotate(0 209.5 12.5)"><text x="0" y="18" font-family="Virgil, Segoe UI Emoji" font-size="20px" fill="#000000" text-anchor="start" style="white-space: pre;" direction="ltr">counter_x == x &amp;&amp; counter_y == 0 -&gt; '\'</text></g><g transform="translate(292.33333333333354 287.3333333333333) rotate(0 55.416666666666686 22.5)"><path d="M-1.634325934574008 1.4528121780604124 C31.6433880213493 -1.2352820478612558, 59.921393801613426 0.25333733928855495, 110.00768250909948 1.0090634059160948 M-0.3961435342207551 -0.24454037006944418 C35.81078420214667 -0.39316506017154706, 72.51163035739837 -0.4096710466236497, 110.54651601271087 -0.9588837688788772 M111.54930419412756 0.6294213961809874 C110.07861814739496 13.427962382789703, 109.49988512041361 25.653182980604473, 109.72759485927725 45.898118836805224 M110.78860266165191 0.8057472640648484 C110.70020451572107 16.074477755930275, 109.68290227081941 31.84014981426299, 110.89126746015006 45.53823556844145 M111.26633263317251 46.30920253507793 C87.30777711708413 44.626119444790916, 63.80617846439905 44.19718588394268, 0.003183351829648018 46.66357616893947 M110.95816032247001 44.52359261456877 C85.31666590451887 44.170030176305836, 61.760093323420755 45.50069788064963, -0.7009530747309327 45.29412966314703 M1.9760489333420992 46.85806135646999 C-1.692965852888301 31.242494022939354, 1.4833174470346422 20.41530063655227, 0.43110732920467854 1.9818880390375853 M-0.7269786084070802 45.015593581832945 C0.49151218519546086 32.51186751620844, -1.1066368462052196 19.39552491158247, -0.0914635444059968 0.9632479781284928" stroke="#000000" stroke-width="1" fill="none"></path></g><g transform="translate(693.1666666666667 297.33333333333337) rotate(0 208.5 12.5)"><text x="0" y="18" font-family="Virgil, Segoe UI Emoji" font-size="20px" fill="#000000" text-anchor="start" style="white-space: pre;" direction="ltr">counter_x == 0 &amp;&amp; counter_y == y -&gt; '\'</text></g><g transform="translate(192.33333333333354 147.33333333333331) rotate(0 39.583333333333314 157.08333333333334)"><path d="M0.789916617795825 -1.934942377731204 C17.057169110747047 0.4631418643596894, 36.621645648498074 -0.5949612798091644, 78.77007099303103 -0.06976206414401531 M-0.5385436778888106 -0.041875370778143406 C26.424108914177232 0.3494139333488422, 51.130559762163685 -0.011211065459064917, 78.98764548047131 0.4683211660012603 M80.57336416126878 0.41668194071103815 C80.22997898881106 104.4459179167502, 78.79851610429296 208.33094714891007, 79.98439916158415 314.47470883051494 M78.90442956287072 -0.576921332249009 C77.76012938417497 100.7688846169436, 77.79401375164831 200.036212310314, 78.7650536171645 313.5493501495454 M77.878044747437 315.0980035333584 C60.43809131789018 313.51845332526136, 40.60627501908067 314.0669290079968, -0.5097754765301943 314.7946390776585 M79.41273165090627 313.9695208982254 C51.60395142459308 314.01152954859816, 25.236051973731556 313.58177651329123, -0.26072836574167013 314.54772395050776 M0.7566256316836606 314.2195496686509 C1.8301784820053153 219.00693667393872, 2.0497640357082063 124.06845794474657, -0.25447319005678776 -0.5166092312040756 M0.2818946709794187 314.08083551419116 C1.6586806233185853 198.455424531508, 2.249476315840366 83.74078062326384, 0.04320848752791527 0.674123459998316" stroke="#000000" stroke-width="1" fill="none"></path></g><g transform="translate(693 335.6666666666667) rotate(0 206.5 12.5)"><text x="0" y="18" font-family="Virgil, Segoe UI Emoji" font-size="20px" fill="#000000" text-anchor="start" style="white-space: pre;" direction="ltr">counter_x == x &amp;&amp; counter_y == y -&gt; '/'</text></g><g><g transform="translate(222.33333333333354 334.8333333333333) rotate(0 12.23284513843555 14.01142559674878)"><path d="M0.38622131757438183 0.0892206329852343 C4.518588450344066 4.783086558721135, 21.200406966068645 23.24465910117661, 25.33584149690962 28.004897326106846 M-0.8701512200385333 -0.9095424800366163 C3.1591040352897446 3.9008874715781903, 20.694085087635422 23.831265250850073, 25.001612819159988 28.932393673534214" stroke="#000000" stroke-width="1" fill="none"></path></g></g><g><g transform="translate(458.1666666666669 363.16666666666663) rotate(0 14.362114630077656 -16.282025458291145)"><path d="M0.7039891619235277 0.6608352106064557 C5.519074383584977 -4.965985524530203, 24.334601410768034 -27.883078590904628, 29.10978451756132 -33.224886127188746 M-0.38555525740608565 -0.03783024916425348 C4.320261750148803 -5.570614122046769, 23.650814949135334 -26.549368062907163, 28.569375925653848 -32.06802609274158" stroke="#000000" stroke-width="1" fill="none"></path></g></g><g><g transform="translate(453.1666666666669 237.33333333333331) rotate(0 14.768808606391133 15.263572440619285)"><path d="M-0.6466719109565019 -1.0998137813061475 C4.01729363083011 4.025298244961441, 23.01745371963412 24.930722682219443, 28.05562923761702 30.345595679556368 M1.214686606451869 0.9371800381690263 C6.22712943553096 6.259426959761321, 25.547581386822763 26.89334554527372, 30.18428912373877 31.626958662544727" stroke="#000000" stroke-width="1" fill="none"></path></g></g><g transform="translate(378.91666666666714 257.41666666666663) rotate(0 2.5833333333333144 2.416666666666657)"><path d="M3.1656051346332728 0.4002077878630601 C3.4392719302135815 0.8355822029206392, 4.12716479161533 1.4922655327129974, 4.600766491032115 2.0287253325091616 C5.074368190448899 2.565185132305326, 6.07944620979052 3.2454217162157666, 6.007215331133979 3.6189665866400462 C5.934984452477439 3.992511457064326, 4.643284674501857 4.171657172731054, 4.167381219092868 4.26999455505484 C3.6914777636838796 4.368331937378626, 3.7830816080821967 4.369442151110443, 3.151794598680049 4.208990880582764 C2.520507589277901 4.0485396100550854, 0.983827286412788 3.609760908545885, 0.3796591626799797 3.3072869318887683 C-0.2245089610528287 3.004812955231652, -0.48586548630910575 2.7247220676973956, -0.47321414371680115 2.394147020640066 C-0.46056280112449655 2.0635719735827363, -0.01186144646944659 1.745036258191404, 0.4555672182338073 1.3238366495447902 C0.9229958829370613 0.9026370408981763, 1.7034591003134354 0.13979369272373787, 2.331357844502722 -0.1330506312396169 C2.959256588692009 -0.4058949552029717, 3.8212575578833845 -0.3221939795057172, 4.222959683369528 -0.3132292942353385 C4.624661808855673 -0.3042646089649598, 4.801054676973741 -0.20881567033496626, 4.741570597419586 -0.07926251961734487 M2.834114738156743 -1.2580150717807683 C3.6942494452190267 -1.349108486425561, 5.282261734669913 -0.3651230495654686, 5.834797194005563 0.23110087161052584 C6.387332653341213 0.8273247927865203, 6.582420171593156 1.9360681105627295, 6.149327494170642 2.319328455275198 C5.716234816748128 2.7025887999876668, 3.7819977137377223 2.2686647958204476, 3.2362411294704776 2.5306629398853375 C2.690484545203233 2.7926610839502275, 3.2688811675819247 3.6972184768921483, 2.8747879885671734 3.891317319664537 C2.480694809552422 4.085416162436926, 1.1741277960681762 3.5744184645804795, 0.8716820553819709 3.69525599651967 C0.5692363146957655 3.81609352845886, 1.414557380136366 4.719206742956366, 1.060113544449941 4.6163425112996785 C0.705669708763516 4.513478279642991, -1.3739206498941423 3.863248133678139, -1.2549809587365788 3.0780706065795407 C-1.1360412675790152 2.2928930794809426, 1.1724852973220563 0.3542474407499541, 1.773751691395322 -0.09472265129191015 C2.3750180854685876 -0.5436927433337744, 2.1397226904365576 0.3409569541181192, 2.3526174057030147 0.3842500543283549 C2.565512120969472 0.4275431545385906, 2.846621738382214 0.3612057251512639, 3.0511199829940647 0.165035949969504" stroke="#000000" stroke-width="1" fill="none"></path></g><g transform="translate(476.416666666667 309.08333333333337) rotate(0 2.5833333333333144 2.416666666666657)"><path d="M2.7449385236913493 -0.3008100817946282 C3.30576257625623 -0.07845109768809758, 4.1901017866712085 0.6821812812860918, 4.631201443025121 1.29297489305022 C5.072301099379034 1.9037685048143485, 5.506743734496768 2.801274437293018, 5.391536461814827 3.3639515887901417 C5.276329189132886 3.9266287402872653, 4.533598299986528 4.311709947673143, 3.9399578069334735 4.669037802032961 C3.3463173138804194 5.026365656392779, 2.4422945432968883 5.567804978723352, 1.829693503496502 5.5079187149490485 C1.2170924636961158 5.448032451174745, 0.5780021873855026 4.723806172947059, 0.2643515681311561 4.309720219387142 C-0.049299051123190385 3.895634265827225, 0.0009663425877364587 3.531555095985677, -0.0522102120295771 3.0234029935895466 C-0.10538676664689064 2.515250891193416, -0.3506369880998919 1.888538396174546, -0.05470775957272522 1.2608076050103587 C0.24122146895444146 0.6330768138461714, 0.921583727801823 -0.5225525524042991, 1.723365159133423 -0.7429817533955774 C2.525146590465023 -0.9634109543868556, 4.246509206778371 -0.27242536398004724, 4.755980828416875 -0.06176760093731071 C5.2654524500553785 0.1488901621054258, 5.101485665521423 0.5756121827133318, 4.780194888964444 0.5209648248608416 M1.5332158109172467 0.8840585090667243 C2.4210939867684482 0.6654706349857983, 4.562152984290469 -1.1813465590437395, 5.3906960999777915 -0.935017245528746 C6.219239215665114 -0.6886879320137523, 6.6598464753287345 1.730203200634139, 6.5044745050411805 2.362034390156686 C6.3491025347536265 2.993865579679233, 4.873923623557232 2.463040211196373, 4.458464278252465 2.8559698916065357 C4.043004932947698 3.248899572016698, 4.424311718236891 4.29457203636335, 4.011718433212579 4.719612472617662 C3.599125148188267 5.144652908871974, 2.752190056999207 5.320974670365618, 1.9829045681065924 5.406212509132407 C1.213619079213978 5.491450347899197, -0.27625553286154353 5.594140658266716, -0.6039945001431084 5.231039505218398 C-0.9317334674246733 4.867938352170079, -0.3272455348664951 4.055216683037151, 0.0164707644172033 3.227605590842499 C0.3601870637009017 2.399994498647847, 0.959486050273757 0.7154068983572095, 1.4583032955590818 0.2653729520504857 C1.9571205408444066 -0.184660994256238, 2.9988057484648136 0.7187921384927981, 3.0093742361291524 0.5274019130021568 C3.0199427237934913 0.33601168751151544, 1.6073333060443724 -0.6526352640659667, 1.5217142215451145 -0.8829684008933625" stroke="#000000" stroke-width="1" fill="none"></path></g><g transform="translate(310.58333333333354 307.41666666666674) rotate(0 2.5833333333333144 2.416666666666657)"><path d="M2.0938816569542342 0.6578585593456956 C2.757761339273934 0.3073464888042925, 3.7972903644248666 -0.5938302034210143, 4.14581287725986 -0.41253188394185214 C4.494335390094853 -0.23123356446268994, 4.163227468117141 1.1411786469077208, 4.1850167339641935 1.7456484762206688 C4.206805999811246 2.350118305533617, 4.474384731301573 2.632428267353653, 4.27654847234218 3.2142870919358364 C4.0787122133827864 3.79614591651802, 3.2659185155942336 5.1399206523287635, 2.9979991802078367 5.23680142371377 C2.73007984482144 5.333682195098776, 2.944271922957335 3.9893116504175414, 2.6690324600237987 3.7955717202458743 C2.3937929970902623 3.601831790074207, 1.838162955465989 4.425005154950794, 1.3465624026066179 4.074361842683767 C0.8549618497472466 3.72371853041674, -0.2367195360903623 2.2543636712439206, -0.280570857132429 1.6917118466437138 C-0.32442217817449576 1.129060022043507, 0.5587006954280093 0.9054169523642269, 1.0834544763542175 0.6984508950825268 C1.6082082572804257 0.49148483780082663, 2.646006454726225 0.38850148480633956, 2.867951828424821 0.4499155029535129 C3.089897202123417 0.5113295211006863, 2.4285840129606004 0.9842249057560947, 2.415126718545792 1.066935003965567 M3.6874594289907003 -0.80250720659319 C4.121764267495144 -0.8103175991272562, 3.6476983810712653 0.43484844541902223, 3.7098119820035746 1.057328948549055 C3.771925582935884 1.6798094516790876, 3.8374794850673575 2.2930739497052235, 4.060141034584557 2.932375812187006 C4.282802584101757 3.5716776746687886, 5.1864546103818245 4.484432924045351, 5.045781279106774 4.893140123439749 C4.905107947831723 5.3018473228341465, 3.96722336169111 5.619947216015967, 3.2161010469342557 5.384619008553393 C2.4649787321774013 5.14929080109082, 1.0943397776157888 3.966551973672997, 0.5390473905656483 3.481170878664307 C-0.01624499648449229 2.9957897836556175, 0.14506212860398038 2.6020489985882636, -0.1156532753665882 2.4723324385012546 C-0.3763686793371568 2.3426158784142457, -1.2081374313598423 2.830700052942593, -1.0252450332577632 2.702871518142253 C-0.842352635155684 2.575042983341913, 0.33180945901963976 2.3623993945998647, 0.9817011132458864 1.7053612296992133 C1.6315927674721329 1.048323064798562, 2.701372496532179 -0.9885357439836815, 2.8741048920997163 -1.2393574712616546 C3.0468372876672536 -1.4901791985396278, 2.114091004383951 0.1085683921935418, 2.0180954866511094 0.20043086603137406" stroke="#000000" stroke-width="1" fill="none"></path></g><g transform="translate(379.75000000000017 308.25) rotate(0 2.5833333333333144 2.416666666666657)"><path d="M2.411276875085263 0.976278251429934 C2.8046397391287856 1.0548377198792598, 2.194748071586639 1.131602690465232, 2.6678977218571642 1.1379999816637367 C3.1410473721276895 1.1443972728622414, 4.911687570489037 0.6712547330548986, 5.250174776708415 1.0146619986209617 C5.5886619829277935 1.358069264187025, 4.872553155675411 2.6330068176893118, 4.698820959173434 3.1984435750601152 C4.525088762671456 3.7638803324309187, 4.5091963517933715 4.252800601690425, 4.207781597696549 4.407282542845782 C3.9063668435997263 4.561764484001139, 3.29374923926375 4.161904250480718, 2.8903324345924983 4.125335221992255 C2.4869156299212465 4.088766193503793, 2.1497048600343667 4.347339955364541, 1.7872807696690378 4.187868371915009 C1.4248566793037092 4.028396788465477, 0.9916836835244598 3.613278429578818, 0.7157878924005261 3.1685057212950607 C0.4398921012765924 2.7237330130113033, -0.145430175102279 2.13419219047295, 0.13190602292543563 1.5192321222124656 C0.40924222095315027 0.9042720539519811, 2.1310750254886615 -0.2898571473277384, 2.379805080566814 -0.5212546882678466 C2.628535135644966 -0.7526522292079548, 1.7954414709961104 -0.047565236540518224, 1.6242863533943495 0.13084687657181604 M3.644530825165857 -0.5905349765023784 C3.869176299002848 -0.6185197104236091, 3.4841658910954365 0.3648086130565326, 3.629751510649563 0.6676341191486534 C3.775337130203689 0.9704596252407742, 4.161921652474115 0.7426609909229263, 4.518044542490616 1.2264180600503467 C4.874167432507116 1.7101751291777672, 5.780934878112177 3.0228743710100545, 5.766488850748567 3.570176533913176 C5.752042823384958 4.117478696816297, 5.400533913775513 4.5467744184453736, 4.43136837830896 4.510231037469076 C3.462202842842407 4.473687656492778, 0.6514312130206116 3.703745047034594, -0.048504362050751926 3.35091624805539 C-0.7484399371221154 2.9980874490761855, 0.3594751328967062 2.5027215735564656, 0.23175492788077934 2.393258243593851 C0.10403472286485252 2.2837949136312368, -0.9280732783252723 2.9074798575860106, -0.8148255921463128 2.6941362682797045 C-0.7015779059673533 2.4807926789733985, 0.17136629870906883 1.43236924620238, 0.9112410449545365 1.1131967077560145 C1.651115791200004 0.794024169309649, 3.47546422502993 0.7411574733521153, 3.6244228853264935 0.7791010376015111 C3.773381545623057 0.8170446018509068, 1.9112214040239006 1.5406348464306878, 1.804993006733919 1.3408580932523888" stroke="#000000" stroke-width="1" fill="none"></path></g><g transform="translate(309.75000000000017 355.75) rotate(0 2.5833333333333144 2.416666666666657)"><path d="M0.9696222266536387 0.9336124909522012 C1.389247208521808 0.902936204000542, 2.417839646412756 0.544775526417448, 3.1139936628852927 0.6617941060892809 C3.8101476793578293 0.7788126857611138, 4.948996860549294 1.1464905518258113, 5.146546325488859 1.635723968983199 C5.344095790428423 2.124957386140587, 4.444293488001702 3.2443274485420104, 4.2992904525226825 3.5971946090336075 C4.154287417043663 3.9500617695252047, 4.3906211302964495 3.461176477394241, 4.27652811261474 3.7529269319327816 C4.16243509493303 4.044677386471323, 4.197398404783679 5.106212256819157, 3.6147323464324246 5.347697336264852 C3.03206628808117 5.589182415710546, 1.3675617357799639 5.7491270192700625, 0.7805317625072121 5.201837408606948 C0.19350178923446026 4.654547797943833, 0.1167596975810898 2.6448957990582587, 0.09255250679591365 2.063959672286163 C0.0683453160107375 1.4830235455140672, 0.24210670588226058 1.9193188184068353, 0.6352886177961552 1.716220647974374 C1.0284705297100498 1.5131224775419128, 2.259906033479297 1.1107054807645673, 2.4516439782792814 0.8453706496913957 C2.6433819230792657 0.5800358186182242, 1.9530425192737426 0.11554860914794955, 1.7857162865960619 0.12421166153534458 M2.8287630329346727 1.4395502386263646 C3.1961053141466484 1.2995269685667228, 3.139192676137844 1.3737164367100771, 3.343753638940908 1.2691194612211354 C3.5483146017439724 1.1645224857321936, 3.8821263593363105 0.2774490558659024, 4.0561288097530594 0.8119683856927139 C4.2301312601698084 1.3464877155195254, 4.200045105345383 3.6264852403884196, 4.387768341441403 4.476235440182005 C4.575491577537422 5.32598563997559, 5.661719494217331 6.025365405242159, 5.182468226329176 5.9104695844542245 C4.703216958441021 5.79557376366629, 2.252581724368288 4.107469423449088, 1.5122607341124734 3.786860515454397 C0.7719397438566586 3.4662516074597054, 0.9982517047627237 4.273709893402124, 0.7405422847942869 3.986816136486077 C0.48283286482584997 3.6999223795700296, -0.08176126904880998 2.734075120274811, -0.03399578569814787 2.0654979739581125 C0.013769697652514234 1.3969208276414142, 0.4850155794950385 0.2960278330640728, 1.0271351848982595 -0.02464674141411205 C1.5692547903014806 -0.3453213158922969, 3.0468326640127135 0.017274118103988448, 3.2187218467211784 0.1414505270890034 C3.3906110294296434 0.2656269360740184, 2.047661529165694 0.902575625885578, 2.058470281149049 0.7204117124959777" stroke="#000000" stroke-width="1" fill="none"></path></g><g transform="translate(383.9166666666669 353.25) rotate(0 2.5833333333333144 2.416666666666657)"><path d="M2.770852297949304 1.0004736607782605 C3.2729496432250524 0.5924090189663695, 2.8826752583284434 -0.5330205129864043, 3.2590917337538228 -0.46818809536780304 C3.635508209179202 -0.40335567774920184, 4.726138057674148 0.8442079686434134, 5.02935115050158 1.3894681664898678 C5.332564243329013 1.9347283643363222, 5.188718535589504 2.3992446319739025, 5.078370290718418 2.8033730917109234 C4.968022045847332 3.2075015514479444, 4.698718614187052 3.4625042116027163, 4.367261681275065 3.814238924911994 C4.035804748363078 4.165973638221272, 3.703926020502284 4.777713880175701, 3.0896286932464947 4.913781371566591 C2.4753313659907055 5.049848862957481, 1.084642167181736 5.129696798999669, 0.6814777177403286 4.630643873257336 C0.2783132682989213 4.1315909475150026, 0.6944667950235877 2.4741324165240783, 0.6706419965980506 1.919463817112592 C0.6468171981725135 1.3647952177011058, 0.15687422760435848 1.4925585597004973, 0.5385289271871061 1.3026322767884189 C0.9201836267698538 1.1127059938763404, 2.7573882959730636 0.8482144277416944, 2.960570194094536 0.7799061196401214 C3.1637520922160087 0.7115978115385483, 2.0201818908970828 1.0486139036384001, 1.7576203159159418 0.8927824281789807 M5.134268088803214 1.1009399517470952 C5.387678842706836 1.4066432210040773, 4.113739759867544 1.185068642786943, 3.9690494946538344 1.2919546579193502 C3.824359229440125 1.3988406730517573, 4.084179725726291 1.4331874067442325, 4.266126497520958 1.7422560425415385 C4.448073269315624 2.051324678338845, 5.355888245950594 2.497374068444048, 5.060730125421832 3.146366472703187 C4.7655720048930705 3.7953588769623257, 3.253581789592927 5.343944070941337, 2.4951777743483845 5.6362104680963725 C1.736773759103842 5.928476865251408, 1.1109932772087965 5.573612723651671, 0.5103060339545777 4.899964855633401 C-0.090381209299641 4.226316987615132, -1.1642730449554806 2.4091832147054184, -1.108945685176928 1.5943232599867556 C-1.0536183253983753 0.7794633052680926, 0.44800152721604986 0.43122154133597007, 0.8422701926258931 0.010805127321422914 C1.2365388580357364 -0.40961128669312424, 0.7725532048687902 -0.8950232266585951, 1.2566663072821314 -0.928175224100527 C1.7407794096954725 -0.9613272215424589, 3.097673969299549 -0.567680198259277, 3.74694880710594 -0.18810685733016808 C4.3962236449123315 0.19146648359894086, 5.343635707094719 1.333533527637778, 5.152315334120479 1.3492648214741267" stroke="#000000" stroke-width="1" fill="none"></path></g><g transform="translate(233.08333333333354 309.91666666666663) rotate(0 2.5833333333333144 2.416666666666657)"><path d="M4.58226510599899 -0.4187947374689336 C4.870123608737284 0.01030101535445388, 4.390057777504401 1.907391477051656, 4.513413893921866 2.4049633116356564 C4.6367700103393314 2.9025351462196567, 5.255378904784442 2.1323478772807585, 5.322401804503778 2.5666362700350684 C5.3894247042231145 3.0009246627893784, 5.534974004441915 4.654178987843649, 4.915551292237884 5.010693668161517 C4.296128580033853 5.3672083484793855, 2.398345267009435 5.01555766475968, 1.6058655312795926 4.70572435194228 C0.8133857955497501 4.39589103912488, 0.3107027760321459 3.656109113874007, 0.1606728778588289 3.1516937912571157 C0.010642979685511839 2.6472784686402244, 0.6221368879019012 1.9539696816518255, 0.7056861422396903 1.6792324162409316 C0.7892353965774793 1.4044951508300376, 0.46676613322443583 1.681762798390256, 0.6619684038855631 1.5032701987917518 C0.8571706745466904 1.3247775991932476, 1.4228000653936745 0.8862716713779719, 1.8768997662064542 0.6082768186499066 C2.3309994670192338 0.3302819659218413, 2.92637888275779 -0.08628559093575539, 3.386566608762241 -0.1646989175766398 C3.8467543347666915 -0.2431122442175242, 4.620731299898793 0.10851455975049291, 4.638026122233159 0.13779685880460013 M3.6418089707116783 -1.0237840992013276 C4.14744093710432 -1.2956033209760442, 3.6755530172834936 0.2688104773893239, 3.684679914511011 0.552685813653208 C3.6938068117385283 0.8365611499170922, 3.4999198506689835 0.07359144076641011, 3.696570354076784 0.679467918381977 C3.893220857484584 1.285344395997544, 4.813848658782269 3.463741707687809, 4.864582934957812 4.187944679346609 C4.915317211133355 4.912147651005409, 4.594571503339928 4.884414420956696, 4.000976011130045 5.024685748334777 C3.407380518920162 5.1649570757128584, 1.9058422655113176 5.185433654032734, 1.3030099816985137 5.029572643615095 C0.7001776978857098 4.873711633197456, 0.4820734856120516 4.834563809658986, 0.38398230825322166 4.089519685828943 C0.2858911308943917 3.3444755619989, 0.6693333136091204 0.915891343418229, 0.7144629175455339 0.5593079006348377 C0.7595925214819474 0.2027244578514465, 0.4043440872453168 1.8775204659891902, 0.6547599318717026 1.950019029128596 C0.9051757764980883 2.022517592268002, 1.671332318517131 1.197004171102865, 2.2169579853038486 0.9942992794712722 C2.762583652090566 0.7915943878396794, 3.8346185035302547 0.7889010618181159, 3.928513932592008 0.7337896793390395" stroke="#000000" stroke-width="1" fill="none"></path></g></svg>